<svg width="145" height="27" viewBox="0 0 145 27" fill="none" xmlns="http://www.w3.org/2000/svg">
<path d="M4.04 5.3V24.38L6.92 25.46V26H0.08V25.46L2.96 24.38V1.88L0.8 1.34V0.799998H5.3C6.548 0.799998 7.532 1.064 8.252 1.592C8.996 2.096 9.632 2.852 10.16 3.86L18.008 18.872L24.02 3.86C24.428 2.804 24.98 2.036 25.676 1.556C26.372 1.052 27.44 0.799998 28.88 0.799998H32.66V1.34L30.5 1.88V24.92L32.66 25.46V26H22.4V25.46L24.56 24.92V5.3L16.1 26.36H15.02L4.04 5.3ZM35.9211 25.46L38.0811 24.92V1.88L35.9211 1.34V0.799998H55.1811V7.28H54.1011C53.6451 6.92 53.2491 6.464 52.9131 5.912C52.1451 4.616 51.7611 3.212 51.7611 1.7H44.0211V13.04H48.1611C48.3291 12.128 48.6411 11.276 49.0971 10.484C49.2891 10.124 49.5171 9.776 49.7811 9.44H50.8611V17.54H49.7811C49.5171 17.204 49.2891 16.856 49.0971 16.496C48.6411 15.704 48.3291 14.852 48.1611 13.94H44.0211V25.1H52.4811C52.4811 23.588 52.8651 22.184 53.6331 20.888C53.9691 20.336 54.3651 19.88 54.8211 19.52H55.9011V26H35.9211V25.46ZM59.1242 25.46L61.2842 24.92V1.88L59.1242 1.34V0.799998H68.3042C72.6002 0.799998 75.8882 1.904 78.1682 4.112C80.4722 6.32 81.6242 9.416 81.6242 13.4C81.6242 17.384 80.4722 20.48 78.1682 22.688C75.8882 24.896 72.6002 26 68.3042 26H59.1242V25.46ZM68.3042 25.1C70.5362 25.1 72.2642 24.2 73.4882 22.4C74.7122 20.576 75.3242 17.576 75.3242 13.4C75.3242 9.224 74.7122 6.236 73.4882 4.436C72.2642 2.612 70.5362 1.7 68.3042 1.7H67.2242V25.1H68.3042Z" fill="#1F2B6C"/>
<path d="M84.8586 26V25.46L87.0186 24.92V1.88L84.8586 1.34V0.799998H95.1186V1.34L92.9586 1.88V24.92L95.1186 25.46V26H84.8586ZM110.77 26.54C106.93 26.54 103.93 25.4 101.77 23.12C99.6102 20.84 98.5302 17.6 98.5302 13.4C98.5302 10.64 98.9982 8.276 99.9342 6.308C100.894 4.316 102.226 2.816 103.93 1.808C105.658 0.775999 107.65 0.259999 109.906 0.259999C111.274 0.259999 112.654 0.655999 114.046 1.448C114.574 1.736 115.102 2.12 115.63 2.6C116.038 1.976 116.458 1.484 116.89 1.124C117.322 0.811998 117.562 0.643998 117.61 0.619998H118.51V7.46H117.07C116.758 6.308 116.29 5.264 115.666 4.328C115.09 3.416 114.37 2.66 113.506 2.06C112.666 1.46 111.694 1.16 110.59 1.16C108.934 1.16 107.554 2.12 106.45 4.04C105.37 5.96 104.83 9.08 104.83 13.4C104.83 17.792 105.418 20.936 106.594 22.832C107.794 24.704 109.426 25.64 111.49 25.64C112.618 25.64 113.686 25.328 114.694 24.704C115.726 24.056 116.554 23.204 117.178 22.148C117.826 21.092 118.15 19.976 118.15 18.8H119.05C119.05 20.168 118.678 21.452 117.934 22.652C117.214 23.828 116.218 24.776 114.946 25.496C113.698 26.192 112.306 26.54 110.77 26.54ZM132.941 26.54C130.589 26.54 128.525 26.036 126.749 25.028C124.997 23.996 123.641 22.496 122.681 20.528C121.721 18.56 121.241 16.184 121.241 13.4C121.241 10.616 121.721 8.24 122.681 6.272C123.641 4.304 124.997 2.816 126.749 1.808C128.525 0.775999 130.589 0.259999 132.941 0.259999C135.293 0.259999 137.345 0.775999 139.097 1.808C140.873 2.816 142.241 4.304 143.201 6.272C144.161 8.24 144.641 10.616 144.641 13.4C144.641 16.184 144.161 18.56 143.201 20.528C142.241 22.496 140.873 23.996 139.097 25.028C137.345 26.036 135.293 26.54 132.941 26.54ZM132.941 25.82C133.877 25.82 134.741 25.424 135.533 24.632C136.349 23.84 137.021 22.52 137.549 20.672C138.077 18.824 138.341 16.4 138.341 13.4C138.341 10.4 138.077 7.976 137.549 6.128C137.021 4.28 136.349 2.96 135.533 2.168C134.741 1.376 133.877 0.979998 132.941 0.979998C132.005 0.979998 131.129 1.376 130.313 2.168C129.521 2.96 128.861 4.28 128.333 6.128C127.805 7.976 127.541 10.4 127.541 13.4C127.541 16.4 127.805 18.824 128.333 20.672C128.861 22.52 129.521 23.84 130.313 24.632C131.129 25.424 132.005 25.82 132.941 25.82Z" fill="#159EEC"/>
</svg>
