<svg xmlns="http://www.w3.org/2000/svg" viewBox="0 0 48 48"><defs><style>.cls-1{fill:#1e0f00;}</style></defs><title>Asset 461</title><g id="Layer_2" data-name="Layer 2"><g id="_1" data-name="1"><rect class="cls-1" y="46" width="48" height="2"/><rect class="cls-1" x="29" y="16" width="12" height="2"/><rect class="cls-1" x="29" y="21" width="12" height="2"/><rect class="cls-1" x="29" y="26" width="12" height="2"/><rect class="cls-1" x="29" y="31" width="12" height="2"/><rect class="cls-1" x="29" y="36" width="12" height="2"/><rect class="cls-1" x="29" y="41" width="12" height="2"/><rect class="cls-1" x="7" y="16" width="16" height="2"/><rect class="cls-1" x="7" y="21" width="16" height="2"/><rect class="cls-1" x="7" y="26" width="16" height="2"/><rect class="cls-1" x="7" y="31" width="16" height="2"/><rect class="cls-1" x="7" y="36" width="16" height="2"/><rect class="cls-1" x="7" y="41" width="16" height="2"/><rect class="cls-1" x="29" y="11" width="18" height="2"/><rect class="cls-1" x="44" y="12" width="2" height="35"/><path class="cls-1" d="M27,48H3a1,1,0,0,1-1-1V1A1,1,0,0,1,3,0H27a1,1,0,0,1,1,1V47A1,1,0,0,1,27,48ZM4,46H26V2H4Z"/><rect class="cls-1" x="14" y="5" width="2" height="8"/><rect class="cls-1" x="11" y="8" width="8" height="2"/><rect class="cls-1" x="1" width="28" height="2"/></g></g></svg>