<svg xmlns="http://www.w3.org/2000/svg" viewBox="0 0 64 64"><g id="_02-Search" data-name="02-Search"><polygon points="48.54 45.54 50.04 44.04 52.5 46.5 46.48 52.52 44.01 50.07 45.54 48.54 48.54 45.54" style="fill:#c1cfe8"/><polygon points="63 57 57 63 46.48 52.52 52.5 46.5 63 57" style="fill:#4989f4"/><path d="M48.54,45.54l-3,3-3.43-3.43a23.618,23.618,0,0,0,3-3Z" style="fill:#8394b2"/><path d="M44.33,9H43a2.006,2.006,0,0,0-2,2v1.76A19.613,19.613,0,0,0,38,10,19.837,19.837,0,0,0,26.45,6.01a7.926,7.926,0,0,0-4.9-4.6A24.232,24.232,0,0,1,26,1,24.928,24.928,0,0,1,44.33,9Z" style="fill:#edf4fa"/><path d="M15.19,42.81A19.985,19.985,0,0,0,45.97,27h5.01a24.871,24.871,0,0,1-5.87,15.11,23.618,23.618,0,0,1-3,3A25,25,0,1,1,11.8,5.42,7.8,7.8,0,0,0,11,8.86a7.248,7.248,0,0,0,.71,3.16,20.006,20.006,0,0,0-3.94,5.75A19.527,19.527,0,0,0,6.2,23.2,19.947,19.947,0,0,0,10,38,19.488,19.488,0,0,0,15.19,42.81Z" style="fill:#edf4fa"/><polygon points="58 15 50 23 46 19 48 17 50 19 56 13 58 15" style="fill:#edf4fa"/><path d="M63,11V25a2.006,2.006,0,0,1-2,2H58l-4,4V27H43a2.006,2.006,0,0,1-2-2V11a2.006,2.006,0,0,1,2-2H61A2.006,2.006,0,0,1,63,11ZM50,23l8-8-2-2-6,6-2-2-2,2Z" style="fill:#4989f4"/><circle cx="19" cy="9" r="3" style="fill:#96272e"/><path d="M26.45,6.01A7.5,7.5,0,0,1,27,8.86c0,5.5-5.6,7.07-5.6,11.78a2.4,2.4,0,0,1-4.8,0c0-3.66-3.39-5.43-4.89-8.62A7.248,7.248,0,0,1,11,8.86a7.8,7.8,0,0,1,.8-3.44A8.02,8.02,0,0,1,19,1a7.907,7.907,0,0,1,2.54.41h.01A7.926,7.926,0,0,1,26.45,6.01ZM22,9a3,3,0,1,0-3,3A3,3,0,0,0,22,9Z" style="fill:#e63b47"/><path d="M15.5,32.5,10,38A19.947,19.947,0,0,1,6.2,23.2Z" style="fill:#01a84e"/><path d="M38,10,19,29,7.77,17.77a20.006,20.006,0,0,1,3.94-5.75c1.5,3.19,4.89,4.96,4.89,8.62a2.4,2.4,0,0,0,4.8,0c0-4.71,5.6-6.28,5.6-11.78a7.5,7.5,0,0,0-.55-2.85A19.837,19.837,0,0,1,38,10Z" style="fill:#01a84e"/><path d="M24,34,34.23,44.23a19.956,19.956,0,0,1-19.04-1.42Z" style="fill:#4989f4"/><path d="M43,27h2.97a19.924,19.924,0,0,1-5.83,13.14L29,29,41,17v8A2.006,2.006,0,0,0,43,27Z" style="fill:#01a84e"/><path d="M41,12.76V17L29,29,40.14,40.14a19.92,19.92,0,0,1-5.91,4.09L24,34l-8.81,8.81A19.488,19.488,0,0,1,10,38l5.5-5.5L6.2,23.2a19.527,19.527,0,0,1,1.57-5.43L19,29,38,10A19.613,19.613,0,0,1,41,12.76Z" style="fill:#fbcb00"/><path d="M38,10a19.613,19.613,0,0,1,3,2.76V11a1.974,1.974,0,0,1,.215-.882A21.918,21.918,0,0,0,26,4c-.24,0-.477.01-.714.018A7.789,7.789,0,0,1,26.45,6.01,19.837,19.837,0,0,1,38,10Z" style="fill:#c1cfe8"/><path d="M4,26a22,22,0,0,0,43.975,1H45.97A19.975,19.975,0,0,1,15.19,42.81,19.488,19.488,0,0,1,10,38,19.947,19.947,0,0,1,6.2,23.2a19.527,19.527,0,0,1,1.57-5.43,20.006,20.006,0,0,1,3.94-5.75,7.291,7.291,0,0,1-.641-2.173A21.937,21.937,0,0,0,4,26Z" style="fill:#c1cfe8"/><path d="M13.6,22.23a2.4,2.4,0,0,0,4.7.655,2.358,2.358,0,0,1-1.7-2.245c0-3.66-3.39-5.43-4.89-8.62a19.941,19.941,0,0,0-2.3,2.819C11.071,17.315,13.6,19.068,13.6,22.23Z" style="fill:#017336"/><path d="M38,27a2.006,2.006,0,0,0,2,2h5.767a19.945,19.945,0,0,0,.2-2H43a2.006,2.006,0,0,1-2-2V17l-3,3Z" style="fill:#017336"/><path d="M39.35,11.118A2,2,0,0,0,38,13v7l3-3V12.76A19.518,19.518,0,0,0,39.35,11.118Z" style="fill:#faab1b"/><path d="M39.35,11.118A19.518,19.518,0,0,1,41,12.76V11H40A1.98,1.98,0,0,0,39.35,11.118Z" style="fill:#8394b2"/><path d="M47.975,27H45.97a19.945,19.945,0,0,1-.2,2h5.048c.079-.66.138-1.326.165-2Z" style="fill:#8394b2"/><path d="M11.293,10.891a7.153,7.153,0,0,1-.224-1.043A7.45,7.45,0,0,1,11,8.86a7.8,7.8,0,0,1,.8-3.44A25.109,25.109,0,0,0,8.3,8.343,7.774,7.774,0,0,0,8,10.45a7.212,7.212,0,0,0,.394,2.373,7.688,7.688,0,0,0,.316.787,9.509,9.509,0,0,0,.7,1.229,19.941,19.941,0,0,1,2.3-2.819,7.589,7.589,0,0,1-.361-.94C11.329,11.018,11.311,10.954,11.293,10.891Z" style="fill:#8394b2"/><polygon points="46.04 48.04 45.54 48.54 44.01 50.07 46.48 52.52 48.5 50.5 46.04 48.04" style="fill:#a8b7d4"/><path d="M61,55l-2.586,2.586a2,2,0,0,1-2.828,0L48.5,50.5l-2.02,2.02L57,63l6-6Z" style="fill:#3f76d4"/><path d="M44.707,44.293,46,43l-.89-.89a23.618,23.618,0,0,1-3,3l3.43,3.43,1-1-1.833-1.833A1,1,0,0,1,44.707,44.293Z" style="fill:#5c6979"/><path d="M19,5a4,4,0,1,0,4,4A4,4,0,0,0,19,5Zm0,7a3,3,0,1,1,3-3A3,3,0,0,1,19,12Z" style="fill:#b32e37"/></g></svg>