<?xml version="1.0" encoding="utf-8"?>
<!-- Generator: Adobe Illustrator 22.1.0, SVG Export Plug-In . SVG Version: 6.00 Build 0)  -->
<svg version="1.1" id="Layer_1" xmlns="http://www.w3.org/2000/svg" xmlns:xlink="http://www.w3.org/1999/xlink" x="0px" y="0px"
	 viewBox="0 0 256 256" style="enable-background:new 0 0 256 256;" xml:space="preserve">
<style type="text/css">
	.st0{fill:#231F20;}
	.st1{fill:#FFEFE4;}
	.st2{fill:#69EBFC;}
	.st3{fill:#5FD4E3;}
	.st4{fill:#A1F1FC;}
	.st5{fill:#D476E2;}
	.st6{fill:#B665C2;}
	.st7{fill:#EA82FA;}
	.st8{fill:#FFF7F2;}
	.st9{fill:#FF8354;}
	.st10{fill:#FFA172;}
	.st11{fill:#6770E6;}
	.st12{fill:#5861C7;}
	.st13{fill:#E0734A;}
	.st14{fill:#EDD4C2;}
	.st15{fill:#CC6944;}
	.st16{fill:#858EFF;}
	.st17{fill:#C76642;}
	.st18{fill:#FFFFFF;}
	.st19{fill:#FFDEC7;}
	.st20{fill:#4E56B0;}
	.st21{fill:#94529E;}
	.st22{fill:#41B6C5;}
	.st23{fill:#9847A4;}
	.st24{fill:#C2552C;}
	.st25{fill:#CFB6A4;}
</style>
<g>
	<path class="st11" d="M229.935,256H26.065C11.67,256,0,244.33,0,229.935V26.065C0,11.67,11.67,0,26.065,0h203.87
		C244.33,0,256,11.67,256,26.065v203.87C256,244.33,244.33,256,229.935,256z"/>
	<path class="st12" d="M229.935,249H26.065C11.67,249,0,237.33,0,222.935v7C0,244.33,11.67,256,26.065,256h203.87
		C244.33,256,256,244.33,256,229.935v-7C256,237.33,244.33,249,229.935,249z"/>
	<path class="st2" d="M229.935,0H26.065C11.67,0,0,11.67,0,26.065V40h256V26.065C256,11.67,244.33,0,229.935,0z"/>
	<path class="st4" d="M229.935,0H26.065C11.67,0,0,11.67,0,26.065v7C0,18.67,11.67,7,26.065,7h203.87C244.33,7,256,18.67,256,33.065
		v-7C256,11.67,244.33,0,229.935,0z"/>
	<circle class="st9" cx="35" cy="20" r="9"/>
	<circle class="st5" cx="68.5" cy="20" r="9"/>
	<circle class="st11" cx="102" cy="20" r="9"/>
	<path class="st18" d="M34,100h188c4.418,0,8,3.582,8,8v112c0,4.418-3.582,8-8,8H34c-4.418,0-8-3.582-8-8V108
		C26,103.582,29.582,100,34,100z"/>
	<path class="st9" d="M112,190h32c4.418,0,8,3.582,8,8v0c0,4.418-3.582,8-8,8h-32c-4.418,0-8-3.582-8-8v0
		C104,193.582,107.582,190,112,190z"/>
	<path class="st14" d="M93,173h70c2.209,0,4,1.791,4,4l0,0c0,2.209-1.791,4-4,4H93c-2.209,0-4-1.791-4-4l0,0
		C89,174.791,90.791,173,93,173z"/>
	<path class="st14" d="M103,157h50c2.209,0,4,1.791,4,4l0,0c0,2.209-1.791,4-4,4h-50c-2.209,0-4-1.791-4-4l0,0
		C99,158.791,100.791,157,103,157z"/>
	<circle class="st5" cx="128" cy="100" r="40"/>
	<circle class="st2" cx="128" cy="94.074" r="17.778"/>
	<path class="st2" d="M128,140c10.173,0,19.452-3.804,26.511-10.059c-5.913-8.258-15.58-13.645-26.511-13.645
		s-20.598,5.387-26.511,13.645C108.548,136.196,117.827,140,128,140z"/>
</g>
</svg>
