<?xml version="1.0" encoding="utf-8"?>
<!-- Generator: Adobe Illustrator 21.0.0, SVG Export Plug-In . SVG Version: 6.00 Build 0)  -->
<svg version="1.1" id="Layer_1" xmlns="http://www.w3.org/2000/svg" xmlns:xlink="http://www.w3.org/1999/xlink" x="0px" y="0px"
	 viewBox="0 0 64 64" style="enable-background:new 0 0 64 64;" xml:space="preserve">
<style type="text/css">
	.st0{fill:#455A64;stroke:#37474F;stroke-linecap:round;stroke-linejoin:round;stroke-miterlimit:10;}
	.st1{fill:#78909C;stroke:#37474F;stroke-linecap:round;stroke-linejoin:round;stroke-miterlimit:10;}
	.st2{fill:#ECEFF1;stroke:#37474F;stroke-linecap:round;stroke-linejoin:round;stroke-miterlimit:10;}
	.st3{fill:none;stroke:#FFFFFF;stroke-linecap:round;stroke-linejoin:round;stroke-miterlimit:10;}
	.st4{fill:#FFCA28;stroke:#37474F;stroke-linecap:round;stroke-linejoin:round;stroke-miterlimit:10;}
	.st5{fill:none;stroke:#37474F;stroke-linecap:round;stroke-linejoin:round;stroke-miterlimit:10;}
	.st6{fill:#B0BEC5;}
	.st7{fill:#37474F;}
	.st8{fill:#455A64;}
	.st9{fill:#9CCC65;stroke:#37474F;stroke-linecap:round;stroke-linejoin:round;stroke-miterlimit:10;}
	.st10{fill:none;stroke:#C5E1A5;stroke-linecap:round;stroke-linejoin:round;stroke-miterlimit:10;}
	.st11{fill:#26C6DA;stroke:#37474F;stroke-linecap:round;stroke-linejoin:round;stroke-miterlimit:10;}
	.st12{fill:#EF5350;stroke:#37474F;stroke-linecap:round;stroke-linejoin:round;stroke-miterlimit:10;}
	.st13{fill:#B0BEC5;stroke:#37474F;stroke-linecap:round;stroke-linejoin:round;stroke-miterlimit:10;}
	.st14{fill:none;stroke:#EF9A9A;stroke-linecap:round;stroke-linejoin:round;stroke-miterlimit:10;}
	.st15{fill:none;stroke:#FFE082;stroke-linecap:round;stroke-linejoin:round;stroke-miterlimit:10;}
	.st16{fill:#D32F2F;stroke:#37474F;stroke-linecap:round;stroke-linejoin:round;stroke-miterlimit:10;}
	.st17{fill:#0097A7;stroke:#37474F;stroke-linecap:round;stroke-linejoin:round;stroke-miterlimit:10;}
	.st18{fill:#689F38;stroke:#37474F;stroke-linecap:round;stroke-linejoin:round;stroke-miterlimit:10;}
	.st19{fill:#FFA000;stroke:#37474F;stroke-linecap:round;stroke-linejoin:round;stroke-miterlimit:10;}
	.st20{fill:#FFA000;}
	.st21{fill:#FF6F00;}
	.st22{fill:#D32F2F;}
	.st23{fill:#0097A7;}
	.st24{fill:none;stroke:#80DEEA;stroke-linecap:round;stroke-linejoin:round;stroke-miterlimit:10;}
	.st25{fill:#689F38;}
	.st26{fill:none;stroke:#B0BEC5;stroke-linecap:round;stroke-linejoin:round;stroke-miterlimit:10;}
	.st27{fill:#78909C;stroke:#37474F;stroke-miterlimit:10;}
	.st28{fill:#78909C;}
	.st29{fill:#B71C1C;}
	.st30{fill:#F57F17;}
	.st31{fill:#006064;}
	.st32{fill:#26A69A;stroke:#37474F;stroke-linecap:round;stroke-linejoin:round;stroke-miterlimit:10;}
</style>
<g>
	<path class="st18" d="M6.9,20v3.5c0,2.8,2.2,5,5,5h3l3.2,3.5c0.4,0.5,1.2,0.5,1.6,0l3.2-3.5h34c2.8,0,5-2.2,5-5V20c0-2.8-2.2-5-5-5
		h-45C9.1,15,6.9,17.2,6.9,20z"/>
	<path class="st9" d="M6.9,16v3.5c0,2.8,2.2,5,5,5h3l3.2,3.5c0.4,0.5,1.2,0.5,1.6,0l3.2-3.5h34c2.8,0,5-2.2,5-5V16c0-2.8-2.2-5-5-5
		h-45C9.1,11,6.9,13.2,6.9,16z"/>
	<path class="st10" d="M8.9,17.9v-2c0-1.7,1.3-3,3-3h2"/>
	<line class="st5" x1="19.4" y1="15.5" x2="46" y2="15.5"/>
	<line class="st5" x1="19.4" y1="19.5" x2="32.7" y2="19.5"/>
	<path class="st17" d="M61.9,48.6v3.5c0,2.8-2.2,5-5,5h-3l-3.2,3.5c-0.4,0.5-1.2,0.5-1.6,0l-3.2-3.5h-34c-2.8,0-5-2.2-5-5v-3.5
		c0-2.8,2.2-5,5-5h45C59.7,43.6,61.9,45.8,61.9,48.6z"/>
	<path class="st11" d="M61.9,44.6v3.5c0,2.8-2.2,5-5,5h-3l-3.2,3.5c-0.4,0.5-1.2,0.5-1.6,0l-3.2-3.5h-34c-2.8,0-5-2.2-5-5v-3.5
		c0-2.8,2.2-5,5-5h45C59.7,39.6,61.9,41.8,61.9,44.6z"/>
	<line class="st5" x1="19.4" y1="44.1" x2="53.4" y2="44.1"/>
	<line class="st5" x1="19.4" y1="48.1" x2="36.4" y2="48.1"/>
	<path class="st25" d="M56.9,11.5H44.5c0.1,0.1,0.2,0.2,0.3,0.3l7.3,7.3c0.6,0.6,1.3,0.9,2.1,0.9c0.8,0,1.6-0.3,2.1-0.9l4.8-4.8
		C60.4,12.7,58.8,11.5,56.9,11.5z"/>
	<g>
		<path class="st23" d="M11.2,50.1c0.4,0.2,0.9,0.4,1.5,0.4c0.9,0,1.7-0.4,2.3-1.1c0.6-0.7,0.8-1.6,0.7-2.4l-0.6-3.5l2.4-2.5
			c0.3-0.3,0.5-0.6,0.6-0.9h-6.2c-2.5,0-4.5,2-4.5,4.5v3.5c0,0.3,0,0.7,0.1,1l0.9-0.5L11.2,50.1z"/>
	</g>
	<path class="st4" d="M9.3,33.3l1.6,3.5c0.1,0.3,0.4,0.5,0.8,0.6l3.8,0.6c0.8,0.1,1.1,1.1,0.6,1.7l-2.8,2.9
		c-0.2,0.2-0.3,0.5-0.3,0.9l0.6,4c0.1,0.8-0.7,1.4-1.5,1l-3.3-1.8c-0.3-0.2-0.7-0.2-1,0l-3.3,1.8c-0.7,0.4-1.6-0.2-1.5-1l0.6-4
		c0.1-0.3,0-0.6-0.3-0.9l-2.8-2.9c-0.6-0.6-0.2-1.6,0.6-1.7l3.8-0.6c0.3-0.1,0.6-0.3,0.8-0.6l1.6-3.5C7.9,32.5,9,32.5,9.3,33.3z"/>
	<path class="st15" d="M3.6,39.6l1.8-0.3c1-0.2,1.8-0.8,2.3-1.7l0.7-1.6"/>
	<path class="st12" d="M56.1,4.3l-1.9,1.9l-1.9-1.9c-1.7-1.7-4.4-1.7-6.1,0l0,0c-1.7,1.7-1.7,4.4,0,6.1l7.3,7.3c0.4,0.4,1,0.4,1.4,0
		l7.3-7.3c1.7-1.7,1.7-4.4,0-6.1l0,0C60.6,2.6,57.8,2.6,56.1,4.3z"/>
	<path class="st14" d="M46.9,7.3c0-0.6,0.2-1.2,0.7-1.6C48,5.2,48.6,5,49.2,5"/>
</g>
</svg>
